<?xml version="1.0" encoding="utf-8"?>
<!-- Generator: Adobe Illustrator 18.1.1, SVG Export Plug-In . SVG Version: 6.00 Build 0)  -->
<!DOCTYPE svg PUBLIC "-//W3C//DTD SVG 1.1//EN" "http://www.w3.org/Graphics/SVG/1.1/DTD/svg11.dtd">
<svg version="1.1" id="Layer_1" xmlns="http://www.w3.org/2000/svg" xmlns:xlink="http://www.w3.org/1999/xlink" x="0px" y="0px"
	 viewBox="0 0 184.3 51.7" enable-background="new 0 0 184.3 51.7" xml:space="preserve">
<g>
	<g>
		<g>
			<path fill="#18C3E0" d="M47.1,5.7L47.1,5.7L47.1,5.7C47.1,5.7,47,5.7,47.1,5.7c-0.1,0-0.1,0-0.1,0H36C33,4.9,29.3,4.4,24.6,4.4
				C9.2,4.4,4.2,8.5,4.2,19.1c0,4.9,1.2,8.4,4.1,10.7c0,0,0,0,0,0c0,0,0.1,0.1,0.1,0.1c1.3,0.9,4.8,2.9,12.2,3.5
				c1.3,0.1,2.6,0.1,4,0.1c15.4,0,20.4-4.3,20.4-14.6c0-2.9-0.4-5.2-1.2-7.2l3.3-0.4c0,0,0,0,0,0c1.6,0,2.9-1.3,2.9-2.9
				C49.9,7,48.7,5.8,47.1,5.7z M24.5,25.7c-7.6,0-10.1-1.8-10.1-6.7c0-5.1,2.5-6.6,10.1-6.6c7.6,0,10,1.6,10,6.6
				C34.6,24,32.2,25.7,24.5,25.7z"/>
			<path fill="#18C3E0" d="M41.4,37.2c-0.3,0-0.6,0-0.9,0.1c-0.2,0.1-0.5,0.1-0.7,0.2c-3.3,1.5-8.2,2.2-15.1,2.2
				c-2.8,0-5.1-0.1-7.1-0.4c-0.5-0.1-1-0.1-1.3-0.2c-0.3-0.1-0.6-0.1-0.9-0.2l-2.2-0.4c-2-0.5-3.4-1.1-4-1.4l-0.1,0h0
				c-0.5-0.2-1-0.3-1.6-0.3c-2.2,0-4,1.8-4,4c0,1.5,0.8,2.8,2,3.5l0,0l0.2,0.1c1.4,0.6,4.2,1.8,8.2,2.5l2.9,0.5l0-0.1
				c2.3,0.3,4.9,0.4,7.9,0.4c8,0,13.7-0.9,18.1-2.8c1.6-0.6,2.6-2.1,2.6-3.8C45.4,39,43.6,37.2,41.4,37.2z"/>
		</g>
	</g>
	<path fill="#FFFFFF" d="M83.4,13l-4.9,0c-1.3-0.4-3-0.6-5.1-0.6c-6.9,0-9.2,1.7-9.2,6.3c0,2.6,0.8,4.3,2.9,5.3
		c-1.9,1.1-2.5,4.3-0.6,6c-2.3,1.1-3.1,2.2-3.1,4.2c0,4.4,2.2,5.8,10.3,5.8c7.5,0,10.3-1.3,10.3-6.3c0-3.5-1.6-5.3-5.7-5.8l-7.1-0.8
		c-1.5-0.2-1.7-1.5-1.1-2.3c1,0.1,2.1,0.2,3.4,0.2c6.9,0,9.2-1.8,9.2-6.3c0-1.1-0.2-2.1-0.5-2.8l1.4-0.2c0.7-0.1,1.2-0.6,1.2-1.3
		C84.7,13.6,84.2,13,83.4,13z M70.3,31.2l4.9,0.5c2.5,0.3,3.2,0.4,3.2,1.8c0,1.8-0.9,2.1-4.8,2.1c-3.8,0-4.6-0.3-4.6-2.2
		C69,32.5,69.4,32,70.3,31.2z M73.4,21.2c-2.9,0-3.8-0.6-3.8-2.5c0-1.9,0.9-2.5,3.8-2.5s3.8,0.6,3.8,2.5
		C77.2,20.6,76.3,21.2,73.4,21.2z"/>
	<path fill="#FFFFFF" d="M136.9,12.4c-2.3,0-4.6,1.1-6.4,2.7V5.7l0,0c0,0,0,0,0,0c0-0.5-0.4-0.9-0.9-0.9h-1.8h-2.3h0
		c-0.5,0-0.9,0.4-0.9,0.9c0,0,0,0,0,0l0,0v25.8c2.4,1,7.2,1.5,9.9,1.5c7.8,0,9.5-4.4,9.5-10.4C144.1,15.3,142,12.4,136.9,12.4z
		 M134.4,28.6c-1.1,0-2.6-0.1-3.9-0.3v-9.6c1.4-0.9,2.5-1.6,4.1-1.6c2.9,0,3.5,1.3,3.5,5.5C138.1,27.2,137.1,28.6,134.4,28.6z"/>
	<path fill="#FFFFFF" d="M165.3,30.8l-0.3-2c0-0.5-0.4-0.8-0.9-0.8c0,0-0.1,0-0.1,0c0,0,0,0,0,0c-2.4,0.2-4.8,0.3-6.4,0.3
		c-3,0-4.3-0.7-4.6-3.6h7c4.2,0,5.9-1.9,5.9-5.5c0-4.5-2.6-6.8-9.3-6.8c-7.1,0-9.9,2.6-9.9,10.3c0,7.2,2.8,10.2,10.2,10.2
		c2.5,0,5.5-0.3,7.8-1.2c0.4-0.1,0.6-0.5,0.6-0.9C165.3,30.9,165.3,30.9,165.3,30.8C165.3,30.8,165.3,30.8,165.3,30.8z M156.9,16.7
		c2.5,0,3.3,0.6,3.3,2.5c0,1.1-0.2,2-1.8,2h-5.5C153,17.5,153.9,16.7,156.9,16.7z"/>
	<path fill="#FFFFFF" d="M113.5,12.4c-2.4,0-6.4,0.3-9.2,0.8c-0.5,0-0.8,0.4-0.8,0.9c0,0,0,0.1,0,0.1c0,0,0,0,0,0l0.3,2.3
		c0,0.5,0.4,0.8,0.9,0.8c0,0,0.1,0,0.1,0c2.8-0.2,5.6-0.3,7.3-0.3c2.5,0,3.2,0.6,3.2,2.5v0.9h-7c-3.7,0-6,1.8-6,4.9v2
		c0,3.6,2.7,5.6,6.4,5.6c3.4,0,5.8-1.8,7.2-3.4l0.5,2.6l0,0c0.1,0.2,0.3,0.4,0.5,0.4c0,0,0,0,0,0l0,0h3.3l0,0c0.5,0,0.9-0.4,0.9-0.9
		l0,0v-12C121.2,14.1,118.6,12.4,113.5,12.4z M115.4,26.7c-1.7,1.3-3.5,1.9-4.9,1.9c-1.6,0-2.3-0.6-2.3-2v-0.8
		c0-1.1,0.5-1.8,1.9-1.9h5.3V26.7z"/>
	<path fill="#FFFFFF" d="M101.1,13.3c0-0.5-0.4-0.9-0.9-0.9c0,0,0,0,0,0l0,0c-0.4,0-0.7,0-1.1,0.1c-2.2,0.3-4.6,1.4-6.8,3.3
		l-0.4-2.3c0,0,0,0,0,0c0-0.3-0.2-0.5-0.5-0.5l0,0l0,0h-3.2l0,0c-0.5,0-0.9,0.4-0.9,0.9v0l0,0v17.8l0,0c0,0.5,0.4,0.8,0.8,0.8l0,0
		h4.1h0h0c0.5,0,0.9-0.4,0.9-0.9c0,0,0,0,0-0.1V19.2c2.6-0.9,4.3-1.3,6-1.3h0.8l0,0c0.5,0,0.8-0.4,0.9-0.8l0,0l0.1-0.6l0.2-2.1
		L101.1,13.3L101.1,13.3C101.1,13.4,101.1,13.4,101.1,13.3z"/>
	<path fill="#FFFFFF" d="M183.1,13.3c0-0.5-0.4-0.9-0.9-0.9c0,0,0,0,0,0l0,0c-0.4,0-0.7,0-1.1,0.1c-2.2,0.3-4.6,1.4-6.8,3.3
		l-0.4-2.3c0,0,0,0,0,0c0-0.3-0.2-0.5-0.5-0.5c0,0,0,0,0,0l0,0h-3.2l0,0c-0.5,0-0.9,0.4-0.9,0.9l0,0v17.7l0,0l0,0v0l0,0
		c0,0.5,0.4,0.8,0.8,0.8l0,0h4.1h0h0c0.5,0,0.9-0.4,0.9-0.9c0,0,0,0,0-0.1V19.2c2.6-0.9,4.3-1.3,6-1.3h0.8l0,0
		c0.5,0,0.8-0.4,0.9-0.8l0,0l0.1-0.6l0.2-2.1L183.1,13.3L183.1,13.3C183.1,13.4,183.1,13.4,183.1,13.3z"/>
</g>
</svg>
